<svg width="148" height="148" viewBox="0 0 148 148" fill="none" xmlns="http://www.w3.org/2000/svg">
<rect width="148" height="148" fill="#1E1E1E"/>
<circle cx="74" cy="74" r="74" fill="#FFA500"/>
<circle cx="74" cy="74" r="64" fill="white"/>
<g filter="url(#filter0_d_0_1)">
<path d="M43.96 92V51.56H49.6V92H43.96ZM29.8 55.52V50.36H63.7V55.52H29.8ZM74.7498 92.6C71.9098 92.6 69.3498 91.96 67.0698 90.68C64.7898 89.36 62.9898 87.58 61.6698 85.34C60.3498 83.1 59.6898 80.56 59.6898 77.72C59.6898 74.92 60.3298 72.4 61.6098 70.16C62.9298 67.92 64.6898 66.16 66.8898 64.88C69.1298 63.56 71.6298 62.9 74.3898 62.9C77.0298 62.9 79.3498 63.5 81.3498 64.7C83.3898 65.9 84.9698 67.56 86.0898 69.68C87.2498 71.8 87.8298 74.2 87.8298 76.88C87.8298 77.28 87.8098 77.72 87.7698 78.2C87.7298 78.64 87.6498 79.16 87.5298 79.76H63.4698V75.26H84.6498L82.6698 77C82.6698 75.08 82.3298 73.46 81.6498 72.14C80.9698 70.78 80.0098 69.74 78.7698 69.02C77.5298 68.26 76.0298 67.88 74.2698 67.88C72.4298 67.88 70.8098 68.28 69.4098 69.08C68.0098 69.88 66.9298 71 66.1698 72.44C65.4098 73.88 65.0298 75.58 65.0298 77.54C65.0298 79.54 65.4298 81.3 66.2298 82.82C67.0298 84.3 68.1698 85.46 69.6498 86.3C71.1298 87.1 72.8298 87.5 74.7498 87.5C76.3498 87.5 77.8098 87.22 79.1298 86.66C80.4898 86.1 81.6498 85.26 82.6098 84.14L86.0898 87.68C84.7298 89.28 83.0498 90.5 81.0498 91.34C79.0898 92.18 76.9898 92.6 74.7498 92.6ZM106.738 92.6C103.938 92.6 101.398 91.94 99.1178 90.62C96.8778 89.3 95.0978 87.52 93.7778 85.28C92.4978 83 91.8578 80.48 91.8578 77.72C91.8578 74.92 92.4978 72.4 93.7778 70.16C95.0978 67.92 96.8778 66.16 99.1178 64.88C101.398 63.56 103.938 62.9 106.738 62.9C108.938 62.9 110.978 63.32 112.858 64.16C114.738 64.96 116.358 66.14 117.718 67.7L114.118 71.3C113.238 70.26 112.158 69.48 110.878 68.96C109.638 68.4 108.258 68.12 106.738 68.12C104.938 68.12 103.338 68.54 101.938 69.38C100.538 70.18 99.4378 71.3 98.6378 72.74C97.8378 74.18 97.4378 75.84 97.4378 77.72C97.4378 79.6 97.8378 81.26 98.6378 82.7C99.4378 84.14 100.538 85.28 101.938 86.12C103.338 86.96 104.938 87.38 106.738 87.38C108.258 87.38 109.638 87.12 110.878 86.6C112.158 86.04 113.258 85.24 114.178 84.2L117.718 87.8C116.398 89.32 114.778 90.5 112.858 91.34C110.978 92.18 108.938 92.6 106.738 92.6Z" fill="#746C6C"/>
</g>
<defs>
<filter id="filter0_d_0_1" x="25.8" y="50.36" width="95.9178" height="50.24" filterUnits="userSpaceOnUse" color-interpolation-filters="sRGB">
<feFlood flood-opacity="0" result="BackgroundImageFix"/>
<feColorMatrix in="SourceAlpha" type="matrix" values="0 0 0 0 0 0 0 0 0 0 0 0 0 0 0 0 0 0 127 0" result="hardAlpha"/>
<feOffset dy="4"/>
<feGaussianBlur stdDeviation="2"/>
<feComposite in2="hardAlpha" operator="out"/>
<feColorMatrix type="matrix" values="0 0 0 0 0 0 0 0 0 0 0 0 0 0 0 0 0 0 0.25 0"/>
<feBlend mode="normal" in2="BackgroundImageFix" result="effect1_dropShadow_0_1"/>
<feBlend mode="normal" in="SourceGraphic" in2="effect1_dropShadow_0_1" result="shape"/>
</filter>
</defs>
</svg>
